<svg width="35" height="31" viewBox="0 0 35 31" fill="none" xmlns="http://www.w3.org/2000/svg">
<path d="M3.28125 14.0312H32.6562C33.0458 14.0312 33.4194 14.186 33.6948 14.4614C33.9703 14.7369 34.125 15.1105 34.125 15.5C34.125 15.8895 33.9703 16.2631 33.6948 16.5386C33.4194 16.814 33.0458 16.9688 32.6562 16.9688H3.28125C2.89171 16.9688 2.51813 16.814 2.24269 16.5386C1.96724 16.2631 1.8125 15.8895 1.8125 15.5C1.8125 15.1105 1.96724 14.7369 2.24269 14.4614C2.51813 14.186 2.89171 14.0312 3.28125 14.0312Z" fill="white"/>
<path d="M3.88937 15.4999L16.0712 27.6788C16.347 27.9546 16.5019 28.3286 16.5019 28.7186C16.5019 29.1087 16.347 29.4827 16.0712 29.7585C15.7954 30.0343 15.4213 30.1892 15.0313 30.1892C14.6413 30.1892 14.2672 30.0343 13.9914 29.7585L0.772687 16.5398C0.635907 16.4033 0.527388 16.2413 0.453344 16.0628C0.3793 15.8844 0.341187 15.6931 0.341187 15.4999C0.341187 15.3067 0.3793 15.1154 0.453344 14.937C0.527388 14.7585 0.635907 14.5965 0.772687 14.46L13.9914 1.24128C14.2672 0.965485 14.6413 0.810547 15.0313 0.810547C15.4213 0.810547 15.7954 0.965485 16.0712 1.24128C16.347 1.51707 16.5019 1.89112 16.5019 2.28115C16.5019 2.67118 16.347 3.04523 16.0712 3.32103L3.88937 15.4999Z" fill="white"/>
</svg>
