<svg width="18" height="18" viewBox="0 0 18 18" fill="none" xmlns="http://www.w3.org/2000/svg">
<path fill-rule="evenodd" clip-rule="evenodd" d="M12.1697 6.95415C12.1697 9.83467 9.83461 12.1698 6.9541 12.1698C4.07362 12.1698 1.73853 9.83467 1.73853 6.95415C1.73853 4.07365 4.07362 1.73854 6.9541 1.73854C9.83461 1.73854 12.1697 4.07365 12.1697 6.95415ZM11.2185 12.4478C10.0408 13.3632 8.56108 13.9083 6.9541 13.9083C3.11346 13.9083 0 10.7948 0 6.95415C0 3.11348 3.11346 0 6.9541 0C10.7947 0 13.9082 3.11348 13.9082 6.95415C13.9082 8.56114 13.3631 10.0409 12.4477 11.2184L18 16.7707L16.7706 18L11.2185 12.4478Z" fill="white"/>
</svg>
